<?xml version="1.0" standalone="no"?>
<!DOCTYPE svg PUBLIC "-//W3C//DTD SVG 20010904//EN"
 "http://www.w3.org/TR/2001/REC-SVG-20010904/DTD/svg10.dtd">
<svg version="1.0" xmlns="http://www.w3.org/2000/svg"
 width="105.000000pt" height="105.000000pt" viewBox="0 0 105.000000 105.000000"
 preserveAspectRatio="xMidYMid meet">
<metadata>
Created by potrace 1.11, written by Peter Selinger 2001-2013
</metadata>
<g transform="translate(0.000000,105.000000) scale(0.100000,-0.100000)"
fill="#000000" stroke="none">
<path d="M479 1027 c-63 -54 -147 -193 -282 -466 -47 -95 -85 -173 -85 -174 0
-1 -12 -29 -26 -61 -15 -33 -25 -61 -23 -63 2 -2 23 25 47 59 39 56 168 230
209 282 41 50 139 145 166 159 43 22 81 3 163 -81 59 -60 216 -261 296 -380
16 -24 34 -46 40 -49 8 -5 8 -3 0 8 -6 8 -17 30 -24 49 -18 48 -201 420 -245
499 -53 94 -133 208 -160 225 -32 21 -45 20 -76 -7z"/>
<path d="M466 698 c-34 -25 -92 -87 -136 -144 -16 -21 -33 -43 -38 -49 -17
-22 -99 -141 -107 -155 -13 -24 35 30 105 116 138 170 199 221 247 209 28 -7
146 -120 198 -190 17 -22 42 -53 57 -70 14 -16 36 -41 48 -55 l22 -25 -17 30
c-10 17 -55 80 -101 140 -160 213 -207 245 -278 193z"/>
<path d="M335 171 c-3 -2 0 -10 5 -16 7 -8 5 -25 -4 -53 -8 -22 -12 -43 -9
-46 3 -3 -2 -8 -11 -12 -25 -9 -19 -24 9 -24 22 0 25 3 19 25 -5 22 -3 25 21
23 22 -2 26 -7 22 -25 -3 -19 0 -23 19 -23 27 0 40 15 20 23 -7 3 -17 18 -20
34 -23 92 -26 99 -46 99 -12 0 -23 -2 -25 -5z m45 -73 c0 -10 -7 -18 -16 -18
-11 0 -14 5 -10 16 3 9 6 23 6 32 0 15 2 15 10 2 5 -8 10 -23 10 -32z"/>
<path d="M537 127 c-18 -58 -34 -151 -18 -107 20 57 44 150 39 155 -2 3 -12
-19 -21 -48z"/>
<path d="M651 170 c-9 -5 -10 -10 -2 -14 14 -9 15 -116 0 -116 -5 0 -7 -5 -4
-10 3 -6 28 -10 56 -10 42 0 49 3 49 20 0 11 -4 20 -10 20 -5 0 -10 -4 -10
-10 0 -5 -12 -10 -26 -10 -26 0 -26 1 -22 65 4 65 -4 82 -31 65z"/>
</g>
</svg>
